<?xml version="1.0" encoding="utf-8"?>
<!-- Generator: Adobe Illustrator 21.0.0, SVG Export Plug-In . SVG Version: 6.00 Build 0)  -->
<svg version="1.1" xmlns="http://www.w3.org/2000/svg" xmlns:xlink="http://www.w3.org/1999/xlink" x="0px" y="0px"
	 viewBox="0 0 3500 530" enable-background="new 0 0 3500 530" xml:space="preserve">
<g id="圖層_2" display="none">
	<rect x="-46.7" y="-119.5" display="inline" fill="#606060" width="3580" height="855.1"/>
</g>
<g id="圖層_1">
	<path fill="#FFFFFF" d="M676.7,372c-0.7-14.6-13-25.9-27.6-25.2c-0.9,0-1.7,0.1-2.5,0.2c-0.3-2.8-1-5.5-2.1-8.2
		c-6.4-15.4-23.7-22.9-39.2-17.3c-6.4-10.5-17.9-17.5-31.1-17.5c-20.1,0-36.4,16.3-36.4,36.4c0,0.1,0,0.3,0,0.4
		c-2.6-0.8-5.4-1.2-8.3-1.2c-16.6,0-30,13.4-30,30c0,12.7,7.9,23.5,19,27.9c2.8,1.3,5.9,2.1,9.2,2.1h122.5c0,0,0,0,0,0h0.1
		c0.1,0,0.2,0,0.3,0c0.3,0,0.7,0,1,0C666.1,398.9,677.3,386.6,676.7,372z"/>
	<path fill="#FFFFFF" d="M83.9,205.4c0.6-12.3,11-21.8,23.2-21.2c0.7,0,1.4,0.1,2.1,0.2c0.3-2.3,0.9-4.7,1.8-6.9
		c5.4-13,20-19.3,33-14.6c5.4-8.8,15.1-14.7,26.2-14.7c16.9,0,30.6,13.7,30.6,30.6c0,0.1,0,0.2,0,0.4c2.2-0.6,4.6-1,7-1
		c13.9,0,25.2,11.3,25.2,25.2c0,10.7-6.6,19.8-16,23.5c-2.3,1.1-5,1.7-7.7,1.7H106.2c0,0,0,0,0,0h-0.1c-0.1,0-0.2,0-0.2,0
		c-0.3,0-0.6,0-0.8,0C92.8,228,83.3,217.6,83.9,205.4z"/>
	<path fill="#FFFFFF" d="M1549.8,298.8c0.5-11.7,10.4-20.7,22.1-20.2c0.7,0,1.4,0.1,2,0.2c0.3-2.2,0.8-4.4,1.7-6.6
		c5.1-12.3,19-18.4,31.4-13.9c5.1-8.4,14.4-14,24.9-14c16.1,0,29.2,13.1,29.2,29.2c0,0.1,0,0.2,0,0.3c2.1-0.6,4.3-0.9,6.7-0.9
		c13.3,0,24,10.7,24,24c0,10.2-6.3,18.8-15.2,22.3c-2.2,1.1-4.7,1.7-7.4,1.7h-98.1c0,0,0,0,0,0h-0.1c-0.1,0-0.2,0-0.2,0
		c-0.3,0-0.5,0-0.8,0C1558.3,320.4,1549.2,310.5,1549.8,298.8z"/>
	<path fill="#FFFFFF" d="M2310.4,82c-0.5-11.7-10.4-20.7-22.1-20.2c-0.7,0-1.4,0.1-2,0.2c-0.3-2.2-0.8-4.4-1.7-6.6
		c-5.1-12.3-19-18.4-31.4-13.9c-4.9-8-13.5-13.5-23.5-13.9c-0.3,0-0.5,0-0.8,0c-0.2,0-0.4,0-0.6,0c0,0-0.1,0-0.1,0c0,0-0.1,0-0.1,0
		c-0.2,0-0.4,0-0.6,0c-0.3,0-0.5,0-0.8,0c-10,0.5-18.6,5.9-23.5,13.9c-12.4-4.5-26.3,1.5-31.4,13.9c-0.9,2.2-1.5,4.4-1.7,6.6
		c-0.7-0.1-1.3-0.2-2-0.2c-11.7-0.5-21.6,8.5-22.1,20.2c-0.5,11.7,8.5,21.6,20.2,22.1c0.3,0,0.5,0,0.8,0c0.1,0,0.2,0,0.2,0h0.1
		c0,0,0,0,0,0h23.9h74.2h23.9c0,0,0,0,0,0h0.1c0.1,0,0.2,0,0.2,0c0.3,0,0.5,0,0.8,0C2301.9,103.6,2311,93.7,2310.4,82z"/>
	<path fill="#FFFFFF" d="M943.7,160.8c0.7-14.6,13-25.9,27.6-25.2c0.9,0,1.7,0.1,2.5,0.2c0.3-2.8,1-5.5,2.1-8.2
		c6.4-15.4,23.7-22.9,39.2-17.3c6.4-10.5,17.9-17.5,31.1-17.5c20.1,0,36.4,16.3,36.4,36.4c0,0.1,0,0.3,0,0.4
		c2.6-0.8,5.4-1.2,8.3-1.2c16.6,0,30,13.4,30,30c0,12.7-7.9,23.5-19,27.9c-2.8,1.3-5.9,2.1-9.2,2.1H970.2c0,0,0,0,0,0h-0.1
		c-0.1,0-0.2,0-0.3,0c-0.3,0-0.7,0-1,0C954.3,187.7,943,175.3,943.7,160.8z"/>
	<path fill="#FFFFFF" d="M3008.9,264.5c-0.7-14.6-13-25.9-27.6-25.2c-0.9,0-1.7,0.1-2.5,0.2c-0.3-2.8-1-5.5-2.1-8.2
		c-6.4-15.4-23.7-22.9-39.2-17.3c-6.4-10.5-17.9-17.5-31.1-17.5c-20.1,0-36.4,16.3-36.4,36.4c0,0.1,0,0.3,0,0.4
		c-2.6-0.8-5.4-1.2-8.3-1.2c-16.6,0-30,13.4-30,30c0,12.7,7.9,23.5,19,27.9c2.8,1.3,5.9,2.1,9.2,2.1h122.5c0,0,0,0,0,0h0.1
		c0.1,0,0.2,0,0.3,0c0.3,0,0.7,0,1,0C2998.3,291.5,3009.6,279.1,3008.9,264.5z"/>
	<path fill="#FFFFFF" d="M2646.3,362.4c0.6-12.3,11-21.8,23.2-21.2c0.7,0,1.4,0.1,2.1,0.2c0.3-2.3,0.9-4.7,1.8-6.9
		c5.4-13,20-19.3,33-14.6c5.4-8.8,15.1-14.7,26.2-14.7c16.9,0,30.6,13.7,30.6,30.6c0,0.1,0,0.2,0,0.4c2.2-0.6,4.6-1,7-1
		c13.9,0,25.2,11.3,25.2,25.2c0,10.7-6.6,19.8-16,23.5c-2.3,1.1-5,1.7-7.7,1.7h-103.1c0,0,0,0,0,0h-0.1c-0.1,0-0.2,0-0.2,0
		c-0.3,0-0.6,0-0.8,0C2655.3,385,2645.8,374.6,2646.3,362.4z"/>
	<path fill="#FFFFFF" d="M3272.2,133.8c0.7-14.6,13-25.9,27.6-25.2c0.9,0,1.7,0.1,2.5,0.2c0.3-2.8,1-5.5,2.1-8.2
		c6.4-15.4,23.7-22.9,39.2-17.3c6.4-10.5,17.9-17.5,31.1-17.5c20.1,0,36.4,16.3,36.4,36.4c0,0.1,0,0.3,0,0.4
		c2.6-0.8,5.4-1.2,8.3-1.2c16.6,0,30,13.4,30,30c0,12.7-7.9,23.5-19,27.9c-2.8,1.3-5.9,2.1-9.2,2.1h-122.5c0,0,0,0,0,0h-0.1
		c-0.1,0-0.2,0-0.3,0c-0.3,0-0.7,0-1,0C3282.8,160.8,3271.5,148.4,3272.2,133.8z"/>
	<path fill="#FFFFFF" d="M2054.7,423.5c-0.8-16.9-15.1-30-32-29.3c-1,0-2,0.1-2.9,0.3c-0.4-3.2-1.2-6.4-2.5-9.6
		c-7.4-17.9-27.5-26.6-45.5-20.1c-7.4-12.2-20.8-20.3-36.1-20.3c-23.3,0-42.3,18.9-42.3,42.3c0,0.2,0,0.3,0,0.5
		c-3.1-0.9-6.3-1.4-9.6-1.4c-19.2,0-34.8,15.6-34.8,34.8c0,14.7,9.2,27.3,22.1,32.4c3.2,1.5,6.8,2.4,10.7,2.4h142.2c0,0,0,0,0,0h0.1
		c0.1,0,0.2,0,0.3,0c0.4,0,0.8,0,1.1,0C2042.4,454.8,2055.5,440.4,2054.7,423.5z"/>
	<g>
	</g>
	<g>
	</g>
	<g>
	</g>
	<g>
	</g>
	<g>
	</g>
	<g>
	</g>
</g>
</svg>
