<?xml version="1.0" encoding="utf-8"?>
<!-- Generator: Adobe Illustrator 21.0.0, SVG Export Plug-In . SVG Version: 6.00 Build 0)  -->
<svg version="1.1" id="圖層_1" xmlns="http://www.w3.org/2000/svg" xmlns:xlink="http://www.w3.org/1999/xlink" x="0px" y="0px"
	 viewBox="0 0 2069.3 614.2" style="enable-background:new 0 0 2069.3 614.2;" xml:space="preserve">
<style type="text/css">
	.st0{fill:#2C48A8;}
	.st1{fill:#305BB0;}
	.st2{fill:#158F63;}
	.st3{fill:#76B030;}
	.st4{fill:#157B8F;}
	.st5{fill:#E86FC0;}
</style>
<path class="st0" d="M1730.3,146h-5.6c-21.5,0-39.2,17.6-39.2,39.2v133.1c-3.8,16.5-20.8,29.1-41.1,29.1l0,0
	c-15.7,0-29.4-7.5-36.6-18.5V208.2c0-21.5-17.6-39.2-39.2-39.2h-5.6c-21.5,0-39.2,17.6-39.2,39.2v77.9c-7.5,9.9-20.5,16.5-35.2,16.5
	l0,0c-23.1,0-41.9-16.2-41.9-36V98.4c0-21.5-17.6-39.2-39.2-39.2h-5.6c-21.5,0-39.2,17.6-39.2,39.2v475.9c0,1.6,0.1,3.2,0.3,4.7
	v35.2c0,0,178.3,0,199.8,0h5.6c21.5,0,39.2,0,39.2,0l0,0h116.9h5.6c21.5,0,39.2,0,39.2,0v-429C1769.4,163.6,1751.8,146,1730.3,146z
	 M1496.3,373.5h-15.2C1486.2,373.2,1491.3,373.2,1496.3,373.5z"/>
<path class="st1" d="M786.1,230.9h-8.3c-23.3,0-42.4,19.1-42.4,42.4v45.8c-4.1,18.9-24.2,34-47,34c-21,0-38.9-12.1-44.6-28.6V211.3
	c0-23.3-19.1-42.4-42.4-42.4h-8.3c-23.3,0-42.4,19.1-42.4,42.4v68.5c0,22-21,40-46.6,40c-16.3,0-30.7-7.3-39.1-18.3V70.3
	c0-23.3-19.1-42.4-42.4-42.4h-8.3C391.1,27.9,372,47,372,70.3v142.3c-4.8,18.3-24.6,32.9-46.9,32.9c-24.6,0-44.9-16.6-46.5-37.5
	v-33.9c0-23.3-19.1-42.4-42.4-42.4h-8.3c-23.3,0-42.4,19.1-42.4,42.4v144.1c-5.9,16.3-23.6,28.2-44.5,28.2
	c-24.6,0-44.9-16.6-46.5-37.5V275c0-23.3-19.1-42.4-42.4-42.4h-8.3c-23.3,0-42.4,19.1-42.4,42.4v339.3c0,0,19.1,0,42.4,0h8.3
	c23.3,0,42.4,0,42.4,0h683.1h8.3c23.3,0,42.4,0,42.4,0v-341C828.5,250,809.4,230.9,786.1,230.9z"/>
<path class="st1" d="M1461.5,246.5h-14.4c-21.5,0-39.2,17.6-39.2,39.2V376c-8.3,11-22.7,18.3-38.9,18.3l0,0
	c-25.5,0-46.4-17.9-46.4-39.8V164.2c0-21.5-17.6-39.2-39.2-39.2h-14.5c-21.5,0-39.2,17.6-39.2,39.2v169.6
	c-5.7,16.4-23.5,28.5-44.4,28.5l0,0c-21.5,0-40.2-15.1-45.6-33l-1.2-69.2c0-21.5-17.6-39.2-39.2-39.2h-14.2
	c-21.5,0-39.2,17.6-39.2,39.2v354.1c0,0,17.6,0,39.2,0h14.5c21.5,0,39.2,0,39.2,0s286.9,0,308.4,0h14.5c21.5,0,39.2,0,39.2,0V472.5
	V285.6C1500.7,264.1,1483.1,246.5,1461.5,246.5z"/>
<path class="st0" d="M527,386.7h-10.7c-11.2,0-20.3,9.1-20.3,20.3v46.7c-2.3,10.1-12.7,17.8-25.2,17.8c-14.1,0-25.6-9.9-25.6-22
	v-48.7c0-11.2-9.1-20.3-20.3-20.3h-10.7c-11.2,0-20.3,9.1-20.3,20.3v18.6c-2.3,10.1-12.7,17.8-25.2,17.8l0,0
	c-9.6,0-18-4.6-22.4-11.3v-72.5c0-11.2-9.1-20.3-20.3-20.3h-10.7c-11.2,0-20.3,9.1-20.3,20.3v115.5c-4.6,6.1-12.5,10.1-21.5,10.1
	l0,0c-14.1,0-25.6-9.9-25.6-22v-53c0-11.2-9.1-20.3-20.3-20.3H217c-11.2,0-20.3,9.1-20.3,20.3v210.2c0,0,0.1,0,0.2,0
	c1.3,0,9.8,0,20.1,0h10.7c11.2,0,20.3,0,20.3,0h47.1c0,0,9.1,0,20.3,0h10.7c11.2,0,20.3,0,20.3,0h47.5c0,0,9.1,0,20.3,0h10.7
	c11.2,0,20.3,0,20.3,0H496c0,0,9.1,0,20.3,0H527c8.4,0,15.7,0,18.7,0c1,0,1.6,0,1.6,0V407C547.3,395.9,538.1,386.7,527,386.7z"/>
<path class="st1" d="M1938.1,430.5h-10.7c-11.2,0-20.3,9.1-20.3,20.3v46.7c-2.3,10.1-12.7,17.8-25.2,17.8l0,0
	c-14.1,0-25.6-9.9-25.6-22v-48.7c0-11.2-9.1-20.3-20.3-20.3h-10.7c-11.2,0-20.3,9.1-20.3,20.3v18.6c-2.3,10.1-12.7,17.8-25.2,17.8
	l0,0c-9.6,0-18-4.6-22.4-11.3v-72.5c0-11.2-9.1-20.3-20.3-20.3h-10.7c-11.2,0-20.3,9.1-20.3,20.3v115.5
	c-4.6,6.1-12.5,10.1-21.5,10.1l0,0c-14.1,0-25.6-9.9-25.6-22v-53c0-11.2-9.1-20.3-20.3-20.3h-10.6c-11.2,0-20.3,9.1-20.3,20.3v166.4
	c0,0,9.1,0,20.3,0h10.7c11.2,0,20.3,0,20.3,0s56.3,0,67.4,0h10.7c11.2,0,20.3,0,20.3,0s56.7,0,67.8,0h10.7c11.2,0,20.3,0,20.3,0
	s59.9,0,71.1,0h10.7c11.2,0,20.3,0,20.3,0V450.8C1958.4,439.7,1949.2,430.5,1938.1,430.5z"/>
<g>
	<path class="st2" d="M1504.4,457.6h-29.9c-2.2,0-4.1-1.8-4.1-4.1l0,0c0-2.2,1.8-4.1,4.1-4.1h29.9c2.2,0,4.1,1.8,4.1,4.1l0,0
		C1508.5,455.7,1506.7,457.6,1504.4,457.6z"/>
	<path class="st2" d="M1485.4,614.2V443.5c0-2.2,1.8-4.1,4.1-4.1l0,0c2.2,0,4.1,1.8,4.1,4.1v170.8c0,0-1.8,0-4.1,0l0,0
		C1487.3,614.2,1485.4,614.2,1485.4,614.2z"/>
	<path class="st2" d="M1504.4,476.9h-29.9c-2.2,0-4.1-1.8-4.1-4.1l0,0c0-2.2,1.8-4.1,4.1-4.1h29.9c2.2,0,4.1,1.8,4.1,4.1l0,0
		C1508.5,475.1,1506.7,476.9,1504.4,476.9z"/>
	<path class="st2" d="M1504.4,496.3h-29.9c-2.2,0-4.1-1.8-4.1-4.1l0,0c0-2.2,1.8-4.1,4.1-4.1h29.9c2.2,0,4.1,1.8,4.1,4.1l0,0
		C1508.5,494.5,1506.7,496.3,1504.4,496.3z"/>
	<path class="st2" d="M1504.4,515.7h-29.9c-2.2,0-4.1-1.8-4.1-4.1l0,0c0-2.2,1.8-4.1,4.1-4.1h29.9c2.2,0,4.1,1.8,4.1,4.1l0,0
		C1508.5,513.9,1506.7,515.7,1504.4,515.7z"/>
	<path class="st2" d="M1504.4,535.1h-29.9c-2.2,0-4.1-1.8-4.1-4.1l0,0c0-2.2,1.8-4.1,4.1-4.1h29.9c2.2,0,4.1,1.8,4.1,4.1l0,0
		C1508.5,533.2,1506.7,535.1,1504.4,535.1z"/>
	<path class="st2" d="M1504.4,554.4h-29.9c-2.2,0-4.1-1.8-4.1-4.1l0,0c0-2.2,1.8-4.1,4.1-4.1h29.9c2.2,0,4.1,1.8,4.1,4.1l0,0
		C1508.5,552.6,1506.7,554.4,1504.4,554.4z"/>
</g>
<g>
	<path class="st2" d="M1443.4,474.3h-29.9c-2.2,0-4.1-1.8-4.1-4.1l0,0c0-2.2,1.8-4.1,4.1-4.1h29.9c2.2,0,4.1,1.8,4.1,4.1l0,0
		C1447.4,472.5,1445.6,474.3,1443.4,474.3z"/>
	<path class="st2" d="M1424.4,614.2v-154c0-2.2,1.8-4.1,4.1-4.1l0,0c2.2,0,4.1,1.8,4.1,4.1v154.1c0,0-1.8,0-4.1,0l0,0
		C1426.2,614.2,1424.4,614.2,1424.4,614.2z"/>
	<path class="st2" d="M1443.4,493.7h-29.9c-2.2,0-4.1-1.8-4.1-4.1l0,0c0-2.2,1.8-4.1,4.1-4.1h29.9c2.2,0,4.1,1.8,4.1,4.1l0,0
		C1447.4,491.8,1445.6,493.7,1443.4,493.7z"/>
	<path class="st2" d="M1443.4,513h-29.9c-2.2,0-4.1-1.8-4.1-4.1l0,0c0-2.2,1.8-4.1,4.1-4.1h29.9c2.2,0,4.1,1.8,4.1,4.1l0,0
		C1447.4,511.2,1445.6,513,1443.4,513z"/>
	<path class="st2" d="M1443.4,532.4h-29.9c-2.2,0-4.1-1.8-4.1-4.1l0,0c0-2.2,1.8-4.1,4.1-4.1h29.9c2.2,0,4.1,1.8,4.1,4.1l0,0
		C1447.4,530.6,1445.6,532.4,1443.4,532.4z"/>
	<path class="st2" d="M1443.4,551.8h-29.9c-2.2,0-4.1-1.8-4.1-4.1l0,0c0-2.2,1.8-4.1,4.1-4.1h29.9c2.2,0,4.1,1.8,4.1,4.1l0,0
		C1447.4,549.9,1445.6,551.8,1443.4,551.8z"/>
	<path class="st2" d="M1443.4,571.1h-29.9c-2.2,0-4.1-1.8-4.1-4.1l0,0c0-2.2,1.8-4.1,4.1-4.1h29.9c2.2,0,4.1,1.8,4.1,4.1l0,0
		C1447.4,569.3,1445.6,571.1,1443.4,571.1z"/>
</g>
<g>
	<path class="st3" d="M195.4,460.7h-29.9c-2.2,0-4.1-1.8-4.1-4.1l0,0c0-2.2,1.8-4.1,4.1-4.1h29.9c2.2,0,4.1,1.8,4.1,4.1l0,0
		C199.4,458.8,197.6,460.7,195.4,460.7z"/>
	<path class="st3" d="M176.4,614.2V446.6c0-2.2,1.8-4.1,4.1-4.1l0,0c2.2,0,4.1,1.8,4.1,4.1v167.7c0,0-1.8,0-4.1,0l0,0
		C178.2,614.2,176.4,614.2,176.4,614.2z"/>
	<path class="st3" d="M195.4,480h-29.9c-2.2,0-4.1-1.8-4.1-4.1l0,0c0-2.2,1.8-4.1,4.1-4.1h29.9c2.2,0,4.1,1.8,4.1,4.1l0,0
		C199.4,478.2,197.6,480,195.4,480z"/>
	<path class="st3" d="M195.4,499.4h-29.9c-2.2,0-4.1-1.8-4.1-4.1l0,0c0-2.2,1.8-4.1,4.1-4.1h29.9c2.2,0,4.1,1.8,4.1,4.1l0,0
		C199.4,497.6,197.6,499.4,195.4,499.4z"/>
	<path class="st3" d="M195.4,518.8h-29.9c-2.2,0-4.1-1.8-4.1-4.1l0,0c0-2.2,1.8-4.1,4.1-4.1h29.9c2.2,0,4.1,1.8,4.1,4.1l0,0
		C199.4,517,197.6,518.8,195.4,518.8z"/>
	<path class="st3" d="M195.4,538.2h-29.9c-2.2,0-4.1-1.8-4.1-4.1l0,0c0-2.2,1.8-4.1,4.1-4.1h29.9c2.2,0,4.1,1.8,4.1,4.1l0,0
		C199.4,536.3,197.6,538.2,195.4,538.2z"/>
	<path class="st3" d="M195.4,557.5h-29.9c-2.2,0-4.1-1.8-4.1-4.1l0,0c0-2.2,1.8-4.1,4.1-4.1h29.9c2.2,0,4.1,1.8,4.1,4.1l0,0
		C199.4,555.7,197.6,557.5,195.4,557.5z"/>
</g>
<g>
	<path class="st3" d="M143.3,480.2h-29.9c-2.2,0-4.1-1.8-4.1-4.1l0,0c0-2.2,1.8-4.1,4.1-4.1h29.9c2.2,0,4.1,1.8,4.1,4.1l0,0
		C147.4,478.4,145.6,480.2,143.3,480.2z"/>
	<path class="st3" d="M124.4,614.2V466.1c0-2.2,1.8-4.1,4.1-4.1l0,0c2.2,0,4.1,1.8,4.1,4.1v148.2c0,0-1.8,0-4.1,0l0,0
		C126.2,614.2,124.4,614.2,124.4,614.2z"/>
	<path class="st3" d="M143.3,499.6h-29.9c-2.2,0-4.1-1.8-4.1-4.1l0,0c0-2.2,1.8-4.1,4.1-4.1h29.9c2.2,0,4.1,1.8,4.1,4.1l0,0
		C147.4,497.7,145.6,499.6,143.3,499.6z"/>
	<path class="st3" d="M143.3,518.9h-29.9c-2.2,0-4.1-1.8-4.1-4.1l0,0c0-2.2,1.8-4.1,4.1-4.1h29.9c2.2,0,4.1,1.8,4.1,4.1l0,0
		C147.4,517.1,145.6,518.9,143.3,518.9z"/>
	<path class="st3" d="M143.3,538.3h-29.9c-2.2,0-4.1-1.8-4.1-4.1l0,0c0-2.2,1.8-4.1,4.1-4.1h29.9c2.2,0,4.1,1.8,4.1,4.1l0,0
		C147.4,536.5,145.6,538.3,143.3,538.3z"/>
	<path class="st3" d="M143.3,557.7h-29.9c-2.2,0-4.1-1.8-4.1-4.1l0,0c0-2.2,1.8-4.1,4.1-4.1h29.9c2.2,0,4.1,1.8,4.1,4.1l0,0
		C147.4,555.9,145.6,557.7,143.3,557.7z"/>
	<path class="st3" d="M143.3,577.1h-29.9c-2.2,0-4.1-1.8-4.1-4.1l0,0c0-2.2,1.8-4.1,4.1-4.1h29.9c2.2,0,4.1,1.8,4.1,4.1l0,0
		C147.4,575.2,145.6,577.1,143.3,577.1z"/>
</g>
<g>
	<path class="st2" d="M288.5,614.2L288.5,614.2c-3.2,0-5.7,0-5.7,0V579c0-3.2,2.6-5.7,5.7-5.7l0,0c3.2,0,5.7,2.6,5.7,5.7v35.2
		C294.2,614.2,291.6,614.2,288.5,614.2z"/>
	<path class="st2" d="M309.1,614.2L309.1,614.2c-3.2,0-5.7,0-5.7,0V579c0-3.2,2.6-5.7,5.7-5.7l0,0c3.2,0,5.7,2.6,5.7,5.7v35.2
		C314.9,614.2,312.3,614.2,309.1,614.2z"/>
	<path class="st2" d="M329.7,614.2L329.7,614.2c-3.2,0-5.7,0-5.7,0V579c0-3.2,2.6-5.7,5.7-5.7l0,0c3.2,0,5.7,2.6,5.7,5.7v35.2
		C335.5,614.2,332.9,614.2,329.7,614.2z"/>
	<path class="st2" d="M350.4,614.2L350.4,614.2c-3.2,0-5.7,0-5.7,0V579c0-3.2,2.6-5.7,5.7-5.7l0,0c3.2,0,5.7,2.6,5.7,5.7v35.2
		C356.1,614.2,353.5,614.2,350.4,614.2z"/>
</g>
<g>
	<path class="st4" d="M1535,614.2L1535,614.2c-3.2,0-5.7,0-5.7,0V579c0-3.2,2.6-5.7,5.7-5.7l0,0c3.2,0,5.7,2.6,5.7,5.7v35.2
		C1540.8,614.2,1538.2,614.2,1535,614.2z"/>
	<path class="st4" d="M1555.7,614.2L1555.7,614.2c-3.2,0-5.7,0-5.7,0V579c0-3.2,2.6-5.7,5.7-5.7l0,0c3.2,0,5.7,2.6,5.7,5.7v35.2
		C1561.4,614.2,1558.8,614.2,1555.7,614.2z"/>
	<path class="st4" d="M1576.3,614.2L1576.3,614.2c-3.2,0-5.7,0-5.7,0V579c0-3.2,2.6-5.7,5.7-5.7l0,0c3.2,0,5.7,2.6,5.7,5.7v35.2
		C1582,614.2,1579.4,614.2,1576.3,614.2z"/>
	<path class="st4" d="M1596.9,614.2L1596.9,614.2c-3.2,0-5.7,0-5.7,0V579c0-3.2,2.6-5.7,5.7-5.7l0,0c3.2,0,5.7,2.6,5.7,5.7v35.2
		C1602.6,614.2,1600.1,614.2,1596.9,614.2z"/>
</g>
<g>
	<g>
		<path class="st5" d="M1228.1,586.8h-2c-3.2,0-5.7-2.6-5.7-5.7V546c0-3.2,2.6-5.7,5.7-5.7h2c3.2,0,5.7,2.6,5.7,5.7v35.1
			C1233.8,584.3,1231.3,586.8,1228.1,586.8z"/>
		<path class="st5" d="M1257.9,586.8h-2c-3.2,0-5.7-2.6-5.7-5.7V546c0-3.2,2.6-5.7,5.7-5.7h2c3.2,0,5.7,2.6,5.7,5.7v35.1
			C1263.7,584.3,1261.1,586.8,1257.9,586.8z"/>
		<path class="st5" d="M1287.7,586.8h-2c-3.2,0-5.7-2.6-5.7-5.7V546c0-3.2,2.6-5.7,5.7-5.7h2c3.2,0,5.7,2.6,5.7,5.7v35.1
			C1293.5,584.3,1290.9,586.8,1287.7,586.8z"/>
		<path class="st5" d="M1317.5,586.8h-2c-3.2,0-5.7-2.6-5.7-5.7V546c0-3.2,2.6-5.7,5.7-5.7h2c3.2,0,5.7,2.6,5.7,5.7v35.1
			C1323.3,584.3,1320.7,586.8,1317.5,586.8z"/>
		<path class="st5" d="M1347.3,586.8h-2c-3.2,0-5.7-2.6-5.7-5.7V546c0-3.2,2.6-5.7,5.7-5.7h2c3.2,0,5.7,2.6,5.7,5.7v35.1
			C1353.1,584.3,1350.5,586.8,1347.3,586.8z"/>
	</g>
	<path class="st5" d="M1353.1,563.6h-132.6v34.1c0,13.7,13.4,16.6,30,16.6h72.6c16.6,0,30-3,30-16.6V563.6z"/>
</g>
<g>
	<g>
		<path class="st5" d="M407.1,586.8L407.1,586.8c-3.2,0-5.7-2.6-5.7-5.7v-28.2c0-3.2,2.6-5.7,5.7-5.7l0,0c3.2,0,5.7,2.6,5.7,5.7V581
			C412.8,584.2,410.3,586.8,407.1,586.8z"/>
		<path class="st5" d="M432.5,586.8L432.5,586.8c-3.2,0-5.7-2.6-5.7-5.7v-28.2c0-3.2,2.6-5.7,5.7-5.7l0,0c3.2,0,5.7,2.6,5.7,5.7V581
			C438.2,584.2,435.6,586.8,432.5,586.8z"/>
		<path class="st5" d="M457.9,586.8L457.9,586.8c-3.2,0-5.7-2.6-5.7-5.7v-28.2c0-3.2,2.6-5.7,5.7-5.7l0,0c3.2,0,5.7,2.6,5.7,5.7V581
			C463.6,584.2,461,586.8,457.9,586.8z"/>
		<path class="st5" d="M483.2,586.8L483.2,586.8c-3.2,0-5.7-2.6-5.7-5.7v-28.2c0-3.2,2.6-5.7,5.7-5.7l0,0c3.2,0,5.7,2.6,5.7,5.7V581
			C489,584.2,486.4,586.8,483.2,586.8z"/>
		<path class="st5" d="M508.6,586.8L508.6,586.8c-3.2,0-5.7-2.6-5.7-5.7v-28.2c0-3.2,2.6-5.7,5.7-5.7l0,0c3.2,0,5.7,2.6,5.7,5.7V581
			C514.3,584.2,511.8,586.8,508.6,586.8z"/>
	</g>
	<path class="st5" d="M514.3,566.9H401.4v20.6c0,14.7,11.9,26.7,26.7,26.7h56.3c16.6,0,30-13.4,30-30v-17.3H514.3z"/>
</g>
<g>
	<g>
		<path class="st3" d="M809.3,614.2L809.3,614.2c-3.2,0-5.7,0-5.7,0V579c0-3.2,2.6-5.7,5.7-5.7l0,0c3.2,0,5.7,2.6,5.7,5.7v35.2
			C815.1,614.2,812.5,614.2,809.3,614.2z"/>
		<path class="st3" d="M830,614.2L830,614.2c-3.2,0-5.7,0-5.7,0V579c0-3.2,2.6-5.7,5.7-5.7l0,0c3.2,0,5.7,2.6,5.7,5.7v35.2
			C835.7,614.2,833.1,614.2,830,614.2z"/>
		<path class="st3" d="M850.6,614.2L850.6,614.2c-3.2,0-5.7,0-5.7,0V579c0-3.2,2.6-5.7,5.7-5.7l0,0c3.2,0,5.7,2.6,5.7,5.7v35.2
			C856.3,614.2,853.7,614.2,850.6,614.2z"/>
		<path class="st3" d="M871.2,614.2L871.2,614.2c-3.2,0-5.7,0-5.7,0V579c0-3.2,2.6-5.7,5.7-5.7l0,0c3.2,0,5.7,2.6,5.7,5.7v35.2
			C876.9,614.2,874.4,614.2,871.2,614.2z"/>
	</g>
	<g>
		<path class="st3" d="M722,614.2L722,614.2c-3.2,0-5.7,0-5.7,0V579c0-3.2,2.6-5.7,5.7-5.7l0,0c3.2,0,5.7,2.6,5.7,5.7v35.2
			C727.8,614.2,725.2,614.2,722,614.2z"/>
		<path class="st3" d="M742.6,614.2L742.6,614.2c-3.2,0-5.7,0-5.7,0V579c0-3.2,2.6-5.7,5.7-5.7l0,0c3.2,0,5.7,2.6,5.7,5.7v35.2
			C748.4,614.2,745.8,614.2,742.6,614.2z"/>
		<path class="st3" d="M763.3,614.2L763.3,614.2c-3.2,0-5.7,0-5.7,0V579c0-3.2,2.6-5.7,5.7-5.7l0,0c3.2,0,5.7,2.6,5.7,5.7v35.2
			C769,614.2,766.4,614.2,763.3,614.2z"/>
		<path class="st3" d="M783.9,614.2L783.9,614.2c-3.2,0-5.7,0-5.7,0V579c0-3.2,2.6-5.7,5.7-5.7l0,0c3.2,0,5.7,2.6,5.7,5.7v35.2
			C789.6,614.2,787,614.2,783.9,614.2z"/>
	</g>
</g>
<circle class="st1" cx="597.3" cy="80.3" r="45.5"/>
</svg>
