<?xml version="1.0" encoding="utf-8"?>
<!-- Generator: Adobe Illustrator 21.0.0, SVG Export Plug-In . SVG Version: 6.00 Build 0)  -->
<svg version="1.1" id="圖層_1" xmlns="http://www.w3.org/2000/svg" xmlns:xlink="http://www.w3.org/1999/xlink" x="0px" y="0px"
	 viewBox="0 0 972.4 572.3" style="enable-background:new 0 0 972.4 572.3;" xml:space="preserve">
<style type="text/css">
	.st0{fill:#D19141;}
	.st1{fill:none;stroke:#403C38;stroke-width:4;stroke-miterlimit:10;}
	.st2{fill:#403C38;}
	.st3{fill:#D1A64F;}
	.st4{fill:#906A43;}
	.st5{fill:#2F588A;}
	.st6{fill:#1D3754;}
	.st7{fill:#AD7943;}
	.st8{fill:#B4854A;}
	.st9{fill:#B58453;}
	.st10{fill:#8A6446;}
	.st11{fill:#D3A15F;}
	.st12{fill:#D67A2E;}
	.st13{fill:#D0A33E;}
	.st14{fill:#98753A;}
	.st15{fill:#396496;stroke:#FFFFFF;stroke-width:8;stroke-miterlimit:10;}
	.st16{fill:#396496;}
	.st17{fill:#FFFFFF;}
	.st18{fill:none;}
	.st19{fill:#78573D;}
	.st20{fill:#E2A135;}
	.st21{fill:#99633A;}
</style>
<path class="st0" d="M481.8,83.5L475.7,97l8.7,3.9l-29.1,64.5l-0.8,1.9l-8.8-4l-6.5,14.4l0,0l-1.5,3.3l8.8,3.9l0,0l273.4,123.3l0,0
	l8.8,4l0.8-1.9l1-2.2l0,0l6.1-13.5l-8.8-3.9l-0.4-0.2l-0.1,0.2l0.1-0.3l0,0l0,0l0.3,0.2l29.9-66.4l0,0l8.8,4l6-13.5L481.8,83.5z"/>
<path class="st1" d="M562.4,81.4c2.1,0.1,4.2-1.1,5.1-3.1c0.7-1.5,0.6-3.1,0-4.4l-0.6-1c-0.5-0.7-1.2-1.2-2-1.6
	c-2.7-1.2-5.8,0-7,2.7c-0.9,2.1-0.4,4.4,1.1,5.9L562.4,81.4z"/>
<path class="st2" d="M562.4,81.4c-0.6,0-1.3-0.2-1.9-0.5s-1.1-0.7-1.6-1.1l-4.8,10.7l3.5,1.6L562.4,81.4z"/>
<path class="st1" d="M818.5,480.4c-1.6,0.3-3.1,1.4-3.8,3c-0.9,2.1-0.4,4.4,1.1,5.9l3.5,1.6c2.1,0.1,4.2-1.1,5.1-3.1
	c1.2-2.7,0-5.8-2.7-7c-0.7-0.3-1.3-0.4-2-0.5L818.5,480.4L818.5,480.4z"/>
<path class="st2" d="M815.8,489.3l-5.1,11.4l3.5,1.6l5.1-11.4c-0.6,0-1.3-0.2-1.9-0.5S816.2,489.8,815.8,489.3z"/>
<path class="st3" d="M759.4,183.1L513.8,72.3c-7.6-3.4-16.4,0-19.8,7.5l-3.5,7.6l272.9,123.2l3.5-7.7
	C770.3,195.3,766.9,186.5,759.4,183.1z"/>
<g>
	<line class="st4" x1="728.6" y1="312.2" x2="728.7" y2="312.2"/>
	<line class="st4" x1="437.8" y1="181" x2="437.8" y2="181"/>
	<polygon class="st4" points="437.8,181 433.6,190.3 442.3,194.3 442.3,194.3 389.7,310.8 663,434.1 715.7,317.6 724.5,321.5 
		728.6,312.2 	"/>
</g>
<polygon class="st5" points="570.4,139.7 499.3,107.7 490.5,127.6 469.5,174.1 540.4,206.1 "/>
<rect x="519.4" y="94.7" transform="matrix(0.4111 -0.9116 0.9116 0.4111 190.4864 562.1054)" class="st6" width="21.8" height="77.8"/>
<polygon class="st5" points="656.2,178.4 585.4,146.5 576.4,166.4 555.5,212.9 626.2,244.8 "/>
<rect x="605.3" y="133.5" transform="matrix(0.4111 -0.9116 0.9116 0.4111 205.7943 663.2574)" class="st6" width="21.8" height="77.6"/>
<polygon class="st5" points="741.9,217.1 671.3,185.2 662.4,205.2 641.4,251.7 712,283.5 "/>
<rect x="691.2" y="172.3" transform="matrix(0.4111 -0.9116 0.9116 0.4111 221.086 764.3016)" class="st6" width="21.8" height="77.4"/>
<polygon class="st7" points="509,224.3 500.9,220.7 456.6,200.7 418.2,285.9 404.1,317.3 456.3,340.8 "/>
<polygon class="st7" points="456.6,200.7 456.6,200.7 500.9,220.7 "/>
<polygon class="st8" points="573.1,253.2 546.7,241.3 520.7,229.6 468.1,346.2 520.5,369.9 "/>
<path class="st8" d="M573.1,253.2l-26.4-11.9L573.1,253.2z"/>
<rect x="520.7" y="299.9" transform="matrix(0.4112 -0.9116 0.9116 0.4112 44.7445 726.488)" class="st7" width="127.9" height="57.5"/>
<polygon class="st7" points="637.2,282.1 584.8,258.5 584.8,258.5 "/>
<polygon class="st8" points="701.3,311 648.9,287.4 613.3,366.6 613.1,366.6 596.2,403.9 606.3,408.4 606.2,408.5 648.7,427.6 
	661.8,398.7 661.9,398.8 "/>
<polygon class="st8" points="701.3,311 648.8,287.4 648.8,287.4 "/>
<polygon class="st2" points="424.7,271.3 424.6,271.4 410.4,265 410.5,264.9 376.2,249.4 372.3,258 381.4,262.2 364.6,299.5 
	371.5,302.6 388.4,265.3 388.4,265.3 388.5,265.3 406.5,273.5 459.6,297.5 442.8,334.8 449.7,337.9 466.6,300.6 466.7,300.6 
	538,332.7 521.1,370.1 528.1,373.2 544.9,335.9 616.1,368 599.3,405.3 606.2,408.4 623.1,371.1 694.3,403.3 677.5,440.6 
	684.4,443.7 701.2,406.4 712.2,411.4 716.1,402.7 "/>
<rect x="89" y="310.7" transform="matrix(0.4111 -0.9116 0.9116 0.4111 -242.3527 285.6417)" class="st9" width="21.9" height="39.3"/>
<path class="st10" d="M86.7,285.5l-10.1,22.4l55.7,25.1l10.1-22.4L86.7,285.5z"/>
<polygon class="st11" points="810.6,500.7 814.1,502.3 814.1,502.3 "/>
<polygon class="st11" points="596.2,404 596.2,404 584.6,398.7 584.6,398.7 578.4,395.9 599.2,405.3 599.2,405.3 "/>
<polygon class="st11" points="648.7,427.6 606.2,408.5 606.2,408.5 663.1,434.2 663.1,434.2 "/>
<polygon class="st11" points="404,317.3 404,317.3 389.7,310.9 389.7,310.9 442.9,334.8 442.9,334.8 "/>
<polygon class="st11" points="520.5,369.8 520.5,369.8 521.1,370.1 521.1,370.1 "/>
<polygon class="st11" points="456.4,340.9 456.4,340.9 449.8,338 449.8,338 468.1,346.2 468.1,346.2 "/>
<polygon class="st11" points="528,373.2 528,373.2 532.2,375.1 532.2,375.1 "/>
<polygon class="st11" points="449.8,338 456.4,340.9 456.4,340.9 "/>
<polygon class="st11" points="404,317.3 404,317.3 442.9,334.8 442.9,334.8 "/>
<polygon class="st11" points="468.1,346.2 520.5,369.8 520.5,369.8 "/>
<polygon class="st11" points="468.1,346.2 468.1,346.2 520.5,369.8 520.5,369.8 "/>
<path class="st11" d="M532.2,375.1l46.2,20.8L532.2,375.1z"/>
<polygon class="st11" points="584.6,398.7 532.2,375.1 532.2,375.1 578.4,395.9 "/>
<polygon class="st11" points="606.2,408.5 648.7,427.6 648.7,427.6 "/>
<polygon class="st11" points="596.2,404 596.2,404 599.2,405.3 599.2,405.3 "/>
<polygon class="st11" points="442.9,334.8 442.9,334.8 449.8,338 449.8,338 "/>
<polygon class="st11" points="521.1,370.1 521.1,370.1 528,373.2 528,373.2 "/>
<polygon class="st11" points="599.2,405.3 599.2,405.3 606.2,408.5 606.2,408.5 "/>
<polygon class="st11" points="599.2,405.3 599.2,405.3 606.2,408.5 606.2,408.5 "/>
<path class="st11" d="M814.1,502.3l-3.5-1.6l-204.4-92.2l-216.5-97.6l-18.1-8.2l0,0l-6.9-3.2l-97.4-43.9L256,280.7l9.9,4.4
	l636.7,287.2h66.8L814.1,502.3z"/>
<polygon class="st12" points="547.8,572.3 205.9,418.1 205.9,418.1 "/>
<path class="st12" d="M902.6,572.3L265.9,285.1l-49.5,109.8l393.2,177.4"/>
<path class="st13" d="M77.5,332.3L77.5,332.3l-34.4-15.5l-10.5,23.1l515.2,232.4h61.8L77.5,332.3z"/>
<path class="st14" d="M17.2,550c-0.6-1.4-1.1-2.9-1.6-4.3C16.1,547.2,16.7,548.6,17.2,550z"/>
<path class="st14" d="M19.3,555.2c-0.6-1.5-1.2-2.9-1.8-4.4C18.1,552.3,18.7,553.8,19.3,555.2z"/>
<path class="st14" d="M10,527.6c-0.4-1.5-0.8-3.1-1.1-4.6C9.2,524.5,9.6,526.1,10,527.6z"/>
<path class="st14" d="M5.2,453.1c0.1-0.6,0.1-1.2,0.2-1.7c-0.1,1.1-0.3,2.2-0.4,3.3c0-0.1,0-0.2,0-0.3C5,454,5.1,453.5,5.2,453.1z"
	/>
<path class="st14" d="M3.7,474.8c0.1-6.7,0.5-13.4,1.3-20.1l0,0c-1.5,12.5-1.7,25-0.8,37.3C3.7,486.3,3.6,480.5,3.7,474.8z"/>
<path class="st14" d="M8.6,522c-0.9-3.8-1.6-7.5-2.2-11.3C7,514.4,7.8,518.2,8.6,522z"/>
<path class="st14" d="M15.3,545c-0.6-1.7-1.2-3.3-1.7-5C14.1,541.6,14.7,543.3,15.3,545z"/>
<path class="st14" d="M11.7,533.7c-0.5-1.7-0.9-3.3-1.4-5C10.7,530.4,11.2,532.1,11.7,533.7z"/>
<path class="st14" d="M21.7,560.6c-0.7-1.6-1.4-3.2-2.1-4.9c2.4,5.6,5,11.2,7.9,16.6l0,0C25.4,568.5,23.5,564.6,21.7,560.6z"/>
<path class="st14" d="M13.6,539.9c-0.6-1.9-1.2-3.8-1.8-5.7C12.4,536.1,13,538,13.6,539.9z"/>
<path class="st14" d="M4.7,497.9C4.5,496,4.3,494,4.2,492C4.3,494,4.5,495.9,4.7,497.9z"/>
<path class="st14" d="M19.5,399.8c-0.1,0.3-0.3,0.7-0.4,1c0-0.1,0.1-0.1,0.1-0.2C19.3,400.3,19.4,400.1,19.5,399.8z"/>
<polygon class="st14" points="27.8,381.3 28.6,379.4 22.7,392.6 22.7,392.6 "/>
<path class="st14" d="M6.2,509.6c-0.2-1.5-0.5-3.1-0.7-4.6C5.7,506.5,6,508,6.2,509.6z"/>
<path class="st14" d="M5.3,503.6c-0.2-1.6-0.4-3.1-0.6-4.7C4.9,500.4,5.1,502,5.3,503.6z"/>
<ellipse transform="matrix(0.4112 -0.9116 0.9116 0.4112 -151.8434 534.0821)" class="st15" cx="337.5" cy="384.6" rx="42" ry="42"/>
<ellipse transform="matrix(0.4111 -0.9116 0.9116 0.4111 -129.8672 679.9458)" class="st15" cx="461.3" cy="440.5" rx="42" ry="42"/>
<ellipse transform="matrix(0.4112 -0.9116 0.9116 0.4112 -107.8061 825.9103)" class="st15" cx="585.4" cy="496.4" rx="42" ry="42"/>
<path class="st16" d="M744,568c8.6-19.1,0.1-41.6-19-50.3c-5.1-2.3-10.3-3.4-15.6-3.4c-14.5,0-28.4,8.3-34.7,22.4
	c-4.2,9.3-4.5,19.6-0.9,29.1c0.9,2.3,1.9,4.5,3.2,6.5h64.6C742.5,570.9,743.3,569.5,744,568z"/>
<path class="st17" d="M728.2,510.4c-23.1-10.4-50.4-0.1-60.8,23c-5.1,11.2-5.4,23.7-1.1,35.2c0.5,1.3,1,2.5,1.6,3.7l9.1,0
	c-1.3-2-2.3-4.2-3.2-6.5c-3.6-9.5-3.3-19.8,0.9-29.1c6.3-14,20.2-22.4,34.7-22.4c5.2,0,10.5,1.1,15.6,3.4
	c19.1,8.6,27.6,31.2,19,50.3c-0.7,1.5-1.5,3-2.3,4.4h4.6c0,0,0-0.1,0.1-0.1h4.3c0.2-0.4,0.3-0.7,0.5-1.1
	C761.6,548.1,751.3,520.8,728.2,510.4z"/>
<path class="st2" d="M708.5,32.4l2.2-4.8L566.1,70.1l0.8,2.7c0.3,0.3,0.5,0.7,0.6,1L708.5,32.4z"/>
<path class="st2" d="M818.5,480.4c0.4-0.1,0.8-0.1,1.2-0.1l2.8-0.3L769.8,56.4l-3.2,7L818.5,480.4z"/>
<polygon class="st2" points="717.4,0 655.9,136.4 723.9,167.1 767.6,70.3 770.8,63.3 785.5,30.7 "/>
<path class="st14" d="M21.7,560.6c1.8,4,3.7,7.9,5.8,11.7h20.1L21.7,560.6z"/>
<polygon class="st18" points="44.1,345.1 34.1,367.2 34.1,367.2 "/>
<polygon class="st14" points="205.9,418.1 44.1,345.1 34.1,367.2 489,572.3 527.9,572.3 547.8,572.3 "/>
<path class="st18" d="M19.1,400.8c-0.1,0.3-0.2,0.5-0.3,0.8c0.1-0.2,0.1-0.3,0.2-0.5C19,401,19,400.9,19.1,400.8z"/>
<path class="st14" d="M19.2,400.6c0,0.1-0.1,0.1-0.1,0.2S19,401,19,401.1C19,401,19.1,400.8,19.2,400.6z"/>
<polygon class="st14" points="451.2,572.3 27.8,381.3 22.7,392.6 141.8,446.3 130.5,471.3 354.5,572.3 "/>
<path class="st14" d="M124.1,485.5l-8.6,19.1L5,454.8c-0.8,6.7-1.2,13.4-1.3,20.1L220,572.4h96.8L124.1,485.5z"/>
<path class="st14" d="M5,454.4c0.1-0.4,0.1-0.9,0.2-1.3C5.1,453.5,5,454,5,454.4z"/>
<path class="st18" d="M11.8,534.2c0-0.2-0.1-0.3-0.1-0.5C11.7,533.9,11.8,534.1,11.8,534.2z"/>
<path class="st18" d="M4.8,498.9c0-0.3-0.1-0.7-0.1-1C4.7,498.2,4.7,498.5,4.8,498.9z"/>
<path class="st18" d="M8.9,523c-0.1-0.3-0.2-0.7-0.2-1C8.7,522.3,8.8,522.6,8.9,523z"/>
<path class="st18" d="M10.3,528.8c-0.1-0.4-0.2-0.8-0.3-1.2C10.1,528,10.2,528.4,10.3,528.8z"/>
<path class="st18" d="M5.5,505c-0.1-0.5-0.1-0.9-0.2-1.4C5.4,504,5.5,504.5,5.5,505z"/>
<path class="st18" d="M6.4,510.6c-0.1-0.3-0.1-0.7-0.2-1C6.3,509.9,6.3,510.3,6.4,510.6z"/>
<path class="st14" d="M85.4,572.3h96.8L4.2,492l0,0c0.1,2,0.3,3.9,0.5,5.9c0,0.3,0.1,0.7,0.1,1c0.2,1.6,0.4,3.1,0.6,4.7
	c0.1,0.5,0.1,0.9,0.2,1.4c0.2,1.5,0.4,3.1,0.7,4.6c0.1,0.3,0.1,0.7,0.2,1c0.6,3.8,1.4,7.6,2.2,11.3c0.1,0.3,0.2,0.7,0.2,1
	c0.4,1.5,0.7,3.1,1.1,4.6c0.1,0.4,0.2,0.8,0.3,1.2c0.4,1.7,0.9,3.3,1.4,5c0,0.2,0.1,0.3,0.1,0.5c0.6,1.9,1.2,3.8,1.8,5.7l0,0
	L85.4,572.3z"/>
<path class="st19" d="M34.1,367.2l-5.5,12.2L34.1,367.2z"/>
<polygon class="st19" points="451.2,572.3 489,572.3 34.1,367.2 28.6,379.4 27.8,381.3 "/>
<polygon class="st19" points="316.7,572.3 354.5,572.3 130.5,471.3 124.1,485.5 "/>
<path class="st19" d="M182.1,572.3h37.8L3.6,474.8c-0.1,5.8,0.1,11.5,0.5,17.3l0,0L182.1,572.3z"/>
<path class="st19" d="M19.5,555.7c-0.1-0.2-0.1-0.3-0.2-0.5C19.4,555.4,19.4,555.6,19.5,555.7z"/>
<path class="st19" d="M17.5,550.8c-0.1-0.3-0.2-0.5-0.3-0.8C17.3,550.3,17.4,550.6,17.5,550.8z"/>
<path class="st19" d="M15.6,545.7c-0.1-0.3-0.2-0.5-0.3-0.8C15.4,545.2,15.5,545.5,15.6,545.7z"/>
<path class="st19" d="M47.6,572.3h37.8l-71.8-32.4l0,0c0.5,1.7,1.1,3.3,1.7,5c0.1,0.3,0.2,0.5,0.3,0.8c0.5,1.4,1.1,2.9,1.6,4.3
	c0.1,0.3,0.2,0.5,0.3,0.8c0.6,1.5,1.2,3,1.8,4.4c0.1,0.2,0.1,0.3,0.2,0.5c0.7,1.6,1.4,3.3,2.1,4.9L47.6,572.3z"/>
<path class="st20" d="M18.7,401.6c-0.4,0.9-0.7,1.7-1,2.6c0.3-0.7,0.6-1.4,0.8-2C18.6,401.9,18.7,401.8,18.7,401.6z"/>
<path class="st20" d="M5.4,451.4c0-0.3,0.1-0.5,0.1-0.8C5.5,450.8,5.4,451.1,5.4,451.4z"/>
<path class="st20" d="M19.5,399.8c0.6-1.4,1.2-2.9,1.9-4.3C20.7,396.9,20.1,398.4,19.5,399.8z"/>
<path class="st20" d="M22.7,392.6l-1.3,2.9L22.7,392.6z"/>
<path class="st20" d="M5.6,449.8c0,0.3-0.1,0.5-0.1,0.8s-0.1,0.5-0.1,0.8c-0.1,0.6-0.1,1.2-0.2,1.7C5.3,452,5.4,450.9,5.6,449.8z"/>
<path class="st20" d="M21.4,395.5c-0.6,1.4-1.3,2.8-1.9,4.3c-0.1,0.3-0.2,0.6-0.3,0.8C19.9,398.9,20.6,397.2,21.4,395.5z"/>
<path class="st20" d="M22.7,392.6l-1.3,2.9L22.7,392.6z"/>
<path class="st20" d="M18.9,401.1c-0.1,0.2-0.1,0.3-0.2,0.5s-0.1,0.3-0.2,0.5C18.7,401.8,18.8,401.5,18.9,401.1z"/>
<path class="st20" d="M22.7,392.6l-1.3,3c-0.8,1.7-1.5,3.4-2.2,5.1c-0.1,0.2-0.1,0.3-0.2,0.5c-0.1,0.3-0.3,0.6-0.4,1
	c-0.6,1.4-1.1,2.8-1.7,4.2c-0.2,0.4-0.3,0.8-0.4,1.2c-0.6,1.5-1.1,3-1.7,4.6c-0.1,0.2-0.2,0.5-0.3,0.7c-0.6,1.8-1.2,3.6-1.8,5.4
	c-0.3,1.1-0.7,2.2-1,3.3c-0.1,0.3-0.2,0.6-0.3,0.9c-0.3,1-0.6,2-0.9,3.1c-0.1,0.4-0.2,0.8-0.3,1.2c-0.2,0.8-0.4,1.6-0.6,2.4
	c-0.2,0.6-0.3,1.2-0.5,1.8c-0.1,0.6-0.3,1.2-0.4,1.8c0,0.2-0.1,0.4-0.1,0.6c-0.1,0.3-0.1,0.7-0.2,1c-0.2,1-0.5,2.1-0.7,3.1
	c-0.1,0.6-0.2,1.1-0.3,1.7c-0.3,1.4-0.6,2.9-0.8,4.3c-0.1,0.4-0.1,0.8-0.2,1.3c-0.2,1.1-0.4,2.2-0.5,3.4c-0.1,0.6-0.2,1.1-0.2,1.7
	c-0.2,1.1-0.3,2.2-0.4,3.3c-0.1,0.4-0.1,0.9-0.2,1.3c0,0.1,0,0.2,0,0.3l110.5,49.8l8.6-19.1l6.4-14.2l11.3-25L22.7,392.6z"/>
<path class="st21" d="M33.9,427.8l-0.1-0.1c-0.4-1.9-1.6-3.5-3.4-4.2c-1.8-0.8-3.8-0.6-5.4,0.3l0.1,0c-1.1,0.5-2,1.5-2.5,2.7
	c-1.3,3,0,6.5,3,7.9c3,1.4,6.5,0,7.9-3C34,430.2,34.1,428.9,33.9,427.8z"/>
<path class="st21" d="M106.2,460.4l-0.1-0.1c-0.4-1.9-1.6-3.5-3.4-4.2c-1.8-0.8-3.8-0.6-5.4,0.3l0.1,0c-1.1,0.5-2,1.5-2.5,2.7
	c-1.3,3,0,6.5,3,7.9c3,1.4,6.5,0,7.9-3C106.3,462.8,106.4,461.5,106.2,460.4z"/>
</svg>
